<?xml version="1.0" standalone="no"?><!DOCTYPE svg PUBLIC "-//W3C//DTD SVG 1.1//EN" "http://www.w3.org/Graphics/SVG/1.1/DTD/svg11.dtd"><svg t="1605250606459" class="icon" viewBox="0 0 1024 1024" version="1.1" xmlns="http://www.w3.org/2000/svg" p-id="1377" xmlns:xlink="http://www.w3.org/1999/xlink" width="200" height="200"><defs><style type="text/css"></style></defs><path d="M1012.565333 612.010667c12.936533-65.024 13.1072-131.959467 0.580267-197.085867l-102.673067-36.522667a419.566933 419.566933 0 0 0-21.742933-52.087466l46.8992-98.986667a513.160533 513.160533 0 0 0-138.9568-139.025067l-100.181333 47.616a414.1056 414.1056 0 0 0-50.244267-20.548266L609.0752 10.8544a514.321067 514.321067 0 0 0-197.085867 0.580267l-37.717333 105.949866c-16.042667 5.632-31.675733 12.219733-46.8992 19.797334l-101.137067-48.128A512.785067 512.785067 0 0 0 86.698667 229.7856l48.469333 101.7856c-6.9632 14.5408-13.1072 29.4912-18.363733 44.7488l-105.7792 37.546667A515.003733 515.003733 0 0 0 11.605333 613.034667l105.233067 37.410133c5.256533 15.189333 11.3664 30.037333 18.363733 44.544l-47.752533 100.386133A513.160533 513.160533 0 0 0 228.693333 936.618667l99.157334-47.172267c15.018667 7.441067 30.5152 13.9264 46.318933 19.456l36.829867 103.5264c65.706667 13.175467 133.393067 13.380267 199.202133 0.580267l36.2496-102.0928c16.9984-5.666133 33.5872-12.424533 49.664-20.241067l98.2016 46.660267a513.160533 513.160533 0 0 0 140.6976-139.537067l-46.421333-97.518933c8.3968-16.7936 15.633067-34.133333 21.674666-51.882667l102.331734-36.352z m-499.370666 52.906666a151.7568 151.7568 0 1 1 0-303.479466 151.7568 151.7568 0 0 1 0 303.479466z" fill="#D1D8E6" p-id="1378"></path></svg>